<svg width="100" height="100" viewBox="0 0 100 100" fill="none" xmlns="http://www.w3.org/2000/svg">
<path d="M45.8335 87.5V79.1667H79.1668V49.5833C79.1668 41.4583 76.3363 34.5653 70.6752 28.9042C65.0141 23.2431 58.1224 20.4139 50.0002 20.4167C41.8752 20.4167 34.9821 23.2472 29.321 28.9083C23.6599 34.5694 20.8307 41.4611 20.8335 49.5833V75H16.6668C14.3752 75 12.4127 74.1833 10.7793 72.55C9.146 70.9167 8.33073 68.9556 8.3335 66.6667V58.3333C8.3335 56.875 8.69878 55.5028 9.42934 54.2167C10.1599 52.9306 11.1835 51.9069 12.5002 51.1458L12.8127 45.625C13.3682 40.9028 14.7404 36.5278 16.9293 32.5C19.1182 28.4722 21.8613 24.9653 25.1585 21.9792C28.4529 18.9931 32.2349 16.6667 36.5043 15C40.7738 13.3333 45.2724 12.5 50.0002 12.5C54.7224 12.5 59.2016 13.3333 63.4377 15C67.6738 16.6667 71.4585 18.9764 74.7918 21.9292C78.1252 24.8792 80.8682 28.3681 83.021 32.3958C85.1738 36.4236 86.5627 40.7986 87.1877 45.5208L87.5002 50.9375C88.8196 51.5625 89.8446 52.5 90.5752 53.75C91.3057 55 91.6696 56.3194 91.6668 57.7083V67.2917C91.6668 68.6806 91.3016 70 90.571 71.25C89.8404 72.5 88.8168 73.4375 87.5002 74.0625V79.1667C87.5002 81.4583 86.6835 83.4208 85.0502 85.0542C83.4168 86.6875 81.4557 87.5028 79.1668 87.5H45.8335ZM37.5002 58.3333C36.3196 58.3333 35.3293 57.9333 34.5293 57.1333C33.7293 56.3333 33.3307 55.3444 33.3335 54.1667C33.3335 52.9861 33.7335 51.9958 34.5335 51.1958C35.3335 50.3958 36.3224 49.9972 37.5002 50C38.6807 50 39.671 50.4 40.471 51.2C41.271 52 41.6696 52.9889 41.6668 54.1667C41.6668 55.3472 41.2668 56.3375 40.4668 57.1375C39.6668 57.9375 38.6779 58.3361 37.5002 58.3333ZM62.5002 58.3333C61.3196 58.3333 60.3293 57.9333 59.5293 57.1333C58.7293 56.3333 58.3307 55.3444 58.3335 54.1667C58.3335 52.9861 58.7335 51.9958 59.5335 51.1958C60.3335 50.3958 61.3224 49.9972 62.5002 50C63.6807 50 64.671 50.4 65.471 51.2C66.271 52 66.6696 52.9889 66.6668 54.1667C66.6668 55.3472 66.2668 56.3375 65.4668 57.1375C64.6668 57.9375 63.6779 58.3361 62.5002 58.3333ZM25.1043 51.875C24.6182 44.5139 26.8404 38.1944 31.771 32.9167C36.7016 27.6389 42.8474 25 50.2085 25C56.3891 25 61.8238 26.9611 66.5127 30.8833C71.2016 34.8056 74.0307 39.8236 75.0002 45.9375C68.6807 45.8681 62.8641 44.1667 57.5502 40.8333C52.2363 37.5 48.1571 32.9861 45.3127 27.2917C44.2016 32.8472 41.8571 37.7958 38.2793 42.1375C34.7016 46.4792 30.3071 49.725 25.1043 51.875Z" fill="#1E71FF"/>
</svg>
