<svg width="250" height="250" viewBox="0 0 250 250" fill="none" xmlns="http://www.w3.org/2000/svg">
<g clip-path="url(#clip0_203_105)">
<path d="M88.8672 251.953C112.109 251.953 130.859 233.203 130.859 209.961V167.969H88.8672C65.625 167.969 46.875 186.719 46.875 209.961C46.875 233.203 65.625 251.953 88.8672 251.953Z" fill="#1E71FF"/>
<path d="M46.875 125.977C46.875 102.734 65.625 83.9844 88.8672 83.9844H130.859V167.969H88.8672C65.625 167.969 46.875 149.219 46.875 125.977Z" fill="#1E71FF"/>
<path d="M46.875 41.9922C46.875 18.75 65.625 0 88.8672 0H130.859V83.9844H88.8672C65.625 83.9844 46.875 65.2344 46.875 41.9922Z" fill="#1E71FF"/>
<path d="M130.859 0H172.852C196.094 0 214.844 18.75 214.844 41.9922C214.844 65.2344 196.094 83.9844 172.852 83.9844H130.859V0Z" fill="#1E71FF"/>
<path d="M214.844 125.977C214.844 149.219 196.094 167.969 172.852 167.969C149.609 167.969 130.859 149.219 130.859 125.977C130.859 102.734 149.609 83.9844 172.852 83.9844C196.094 83.9844 214.844 102.734 214.844 125.977Z" fill="#1E71FF"/>
</g>
<defs>
<clipPath id="clip0_203_105">
<rect width="250" height="250" fill="white"/>
</clipPath>
</defs>
</svg>
