<svg width="103" height="55" viewBox="0 0 103 55" fill="none" xmlns="http://www.w3.org/2000/svg">
<path d="M21.4245 22.9696C21.3395 23.1302 21.2828 23.2388 21.2544 23.2955L20.2908 24.9959C19.9602 25.6005 19.6532 26.3563 19.3698 27.2632L19.3414 27.334L19.1997 27.2349L19.1572 27.0506C18.8832 25.9737 18.4912 25.2274 17.9811 24.8117C17.4804 24.396 16.7104 24.1882 15.6713 24.1882C15.2462 24.1882 14.8211 24.2071 14.3959 24.2449H14.2259V39.6056L15.898 41.1502H9.42212L11.406 39.4923V25.3927L10.3999 25.3785C9.42684 25.3785 8.73249 25.5722 8.31683 25.9595C7.91061 26.3374 7.66971 27.0081 7.59414 27.9717H7.2257C7.32962 26.8664 7.61303 26.0965 8.07593 25.6619C8.54828 25.2274 9.32293 25.0101 10.3999 25.0101L11.2501 25.0243H11.406V24.3299C10.9242 24.2732 10.466 24.2449 10.0314 24.2449C8.81279 24.2449 7.93423 24.4952 7.39575 24.9959C6.85727 25.4872 6.55969 26.3232 6.50301 27.5041H6.33297C5.92675 26.191 5.29852 24.7267 4.4483 23.1113L4.36328 22.9696H21.4245ZM22.3172 23.8623C21.6654 24.6936 20.9805 26.0729 20.2625 28.0001L20.2058 28.1418L19.8941 27.8725L19.9366 27.745C20.6357 25.7895 21.3111 24.4291 21.963 23.6639L22.0338 23.5789L22.3172 23.8623ZM18.5337 26.0729C17.8063 25.6005 16.9561 25.3644 15.983 25.3644C15.7658 25.3644 15.539 25.3785 15.3029 25.4069L15.3595 39.6482L17.6126 42.3122H10.3715L10.0456 41.9296H16.8333L14.9344 39.7615V24.9959L15.6996 24.9818C16.616 24.9818 17.2631 25.0573 17.641 25.2085C18.0283 25.3502 18.3259 25.6383 18.5337 26.0729ZM37.7913 22.9696L37.5646 23.2388C36.601 24.4197 35.8358 25.7753 35.269 27.3057C35.1745 27.0884 35.1037 26.9278 35.0564 26.8239C34.5369 25.6903 33.9795 24.9581 33.3843 24.6275C32.7892 24.2969 31.7217 24.1315 30.1818 24.1315C29.4733 24.1315 28.6231 24.1551 27.6311 24.2024V30.7208H28.538V24.9534C29.256 24.8873 29.9409 24.8542 30.5927 24.8542C31.7925 24.8542 32.6758 24.9818 33.2426 25.2368C33.8094 25.4919 34.3148 25.9879 34.7589 26.7247C34.6266 26.6302 34.5321 26.5594 34.4754 26.5122C33.7102 25.9076 33.1576 25.5486 32.8175 25.4352C32.4774 25.3218 31.8067 25.2652 30.8053 25.2652C30.503 25.2652 29.9645 25.2841 29.1899 25.3218L28.8923 25.336V30.7208H31.4997L33.3276 28.2126V34.3201L31.4997 31.9536H27.6311V39.9032H28.538V32.6196H31.613L31.9815 32.988H28.8923V39.9032C30.8195 39.9032 32.1893 39.7662 33.0017 39.4923C33.8142 39.2183 34.4518 38.6798 34.9147 37.8768L35.6658 36.5873C35.6941 36.5307 35.7508 36.4267 35.8358 36.2756C36.0814 37.3148 36.3837 38.1461 36.7427 38.7696C37.1111 39.3931 37.7158 40.1205 38.5565 40.9518H22.6715L24.8254 39.3081V32.988C24.0318 33.0825 23.3139 33.3281 22.6715 33.7249L22.4731 33.4273C23.0494 33.0117 23.8335 32.7424 24.8254 32.6196V31.9536C24.6648 31.9347 24.5514 31.9253 24.4853 31.9253C23.5217 31.9253 22.6431 32.2795 21.8496 32.988C22.2842 31.4765 23.2761 30.7208 24.8254 30.7208V24.67L22.6715 22.9696H37.7913ZM38.4715 23.9615L38.3723 24.089C37.2198 25.6383 36.4499 26.9373 36.0625 27.9859L35.8216 27.6883C36.4546 26.224 37.2717 24.8826 38.2731 23.6639L38.4715 23.9615ZM34.3054 28.6802V34.9436L33.9511 34.7594V28.496L34.3054 28.6802ZM40.172 41.0369L39.4351 42.3122H23.961L23.7343 41.9296H39.2509L39.7327 41.0369C38.3723 39.7804 37.4134 38.4389 36.8561 37.0125L37.3095 37.1825C37.8291 38.3917 38.7077 39.6009 39.9452 40.8101L40.172 41.0369ZM53.7897 23.1254C53.2985 23.7867 52.9065 24.4763 52.6136 25.1943C52.0373 26.6114 51.6547 27.4805 51.4658 27.8017L51.3949 27.8867C51.3572 27.7828 51.3288 27.7025 51.3099 27.6458C51.0454 26.7956 50.8281 26.2051 50.6581 25.8745C50.488 25.5438 50.233 25.2274 49.8929 24.9251C49.0332 24.1599 48.0554 23.7773 46.9596 23.7773C45.9488 23.7773 45.108 24.0607 44.4373 24.6275C43.7665 25.1849 43.4312 25.8887 43.4312 26.7389C43.4312 28.326 44.6262 29.4077 47.0163 29.9839L49.4111 30.5649C52.8214 31.3868 54.5266 33.1864 54.5266 35.9638C54.5266 37.5131 53.9409 38.8168 52.7695 39.8749C51.6075 40.9235 50.1668 41.4478 48.4475 41.4478C47.3705 41.4478 46.1661 41.2825 44.834 40.9518L43.1761 40.5409C42.5054 40.3803 41.9527 40.3 41.5182 40.3C40.9419 40.3 40.3467 40.4842 39.7327 40.8526L39.6193 40.6543C40.7907 38.8877 41.6126 37.2061 42.085 35.6096L42.34 35.6804C42.5384 37.1636 43.1336 38.3161 44.1255 39.138C45.1174 39.9599 46.4164 40.3708 48.0224 40.3708C49.2883 40.3708 50.2944 40.078 51.0407 39.4923C51.787 38.9066 52.1602 38.1177 52.1602 37.1258C52.1602 35.9827 51.6406 35.038 50.6014 34.2917C49.8551 33.7627 48.3247 33.2715 46.0102 32.818C44.2247 32.4685 42.9305 31.8875 42.1275 31.075C41.3245 30.2626 40.923 29.1337 40.923 27.6883C40.923 26.1957 41.4567 24.9865 42.5243 24.0607C43.6012 23.1254 44.9994 22.6578 46.7187 22.6578C47.824 22.6578 49.1135 22.8562 50.5872 23.253C51.2769 23.4419 51.787 23.5364 52.1176 23.5364C52.5805 23.5364 53.086 23.3758 53.6339 23.0546L53.7897 23.1254ZM54.6683 23.7206L54.5408 23.9331C54.1535 24.585 53.8228 25.2085 53.5489 25.8036C52.8876 27.1923 52.5144 27.967 52.4294 28.1276L52.3585 28.2268L52.0184 28.0851L52.0751 27.9575C52.3491 27.334 52.7459 26.5216 53.2654 25.5202L54.229 23.6497L54.2999 23.5364L54.6683 23.7206ZM50.5306 26.5405C49.4914 25.4352 48.3766 24.8826 47.1863 24.8826C46.4684 24.8826 45.8732 25.0904 45.4009 25.5061C44.9285 25.9217 44.6923 26.4508 44.6923 27.0931C44.6923 27.7922 45.1694 28.5102 46.1235 29.2471L46.2369 29.3179L46.1661 29.4313C44.9191 28.8739 44.2956 28.0662 44.2956 27.0081C44.2956 26.2713 44.5601 25.6714 45.0891 25.2085C45.6181 24.7456 46.3078 24.5141 47.158 24.5141C47.9704 24.5141 48.6789 24.6889 49.2836 25.0384C49.8976 25.3785 50.3463 25.8603 50.6297 26.4838L50.5306 26.5405ZM53.7897 32.1662C55.0745 33.1392 55.7169 34.4712 55.7169 36.1622C55.7169 37.9666 55.0179 39.497 53.6197 40.7534C52.2216 42.0004 50.5211 42.6239 48.5183 42.6239C47.4981 42.6239 46.577 42.52 45.7551 42.3122L43.4878 41.7595C42.9588 41.6273 42.392 41.5612 41.7874 41.5612C41.2489 41.5612 40.753 41.6698 40.2995 41.8871L40.1295 41.4761C40.6207 41.2494 41.1214 41.136 41.6315 41.136C42.1983 41.136 42.8455 41.2211 43.5729 41.3911L45.7551 41.9154C46.6242 42.1233 47.5406 42.2272 48.5042 42.2272C50.3936 42.2272 51.9996 41.6273 53.3221 40.4275C54.6541 39.2183 55.3202 37.7588 55.3202 36.0489C55.3202 34.6035 54.81 33.3376 53.7897 32.2512V32.1662ZM43.7004 36.2472C44.0499 37.9477 44.9852 39.1522 46.5061 39.8607V39.9741C44.749 39.4639 43.6862 38.2453 43.3178 36.3181L43.7004 36.2472ZM41.9291 31.656L42.4109 31.9253C42.7226 32.4826 43.6343 32.9455 45.1458 33.314L47.4272 33.8808C48.9765 34.2681 50.0062 34.6035 50.5164 34.8869C51.036 35.1608 51.4044 35.5812 51.6217 36.1481L51.5225 36.2047C51.0974 35.7135 50.6345 35.3545 50.1338 35.1278C49.6425 34.9011 48.6931 34.6224 47.2855 34.2917C45.245 33.8194 43.8752 33.4132 43.1761 33.0731C42.477 32.7235 42.0614 32.2512 41.9291 31.656ZM69.7031 22.9696L68.2294 24.6417L70.5534 30.82L71.1202 30.5082L69.023 24.9251L70.525 23.1963L70.8935 23.3522L69.4622 25.0101L71.4461 30.2957C71.5595 30.2106 71.6256 30.1587 71.6445 30.1398L72.1121 29.743C72.3955 29.5163 72.575 29.3557 72.6506 29.2612C72.8962 30.3382 73.2741 31.3018 73.7842 32.152C73.5103 32.1331 73.3119 32.1237 73.1891 32.1237C72.2916 32.1237 71.635 32.2654 71.2194 32.5488L73.7842 39.5064L75.9098 41.1502H68.7537L70.7092 39.5064L69.1363 35.3687C68.0972 36.4173 67.2989 37.4139 66.7415 38.3586L66.4156 38.2736C66.973 37.3478 67.8043 36.3134 68.9096 35.1703L69.023 35.0286L68.7537 34.4051C67.6295 35.3403 66.699 36.4267 65.9622 37.6643L65.7071 37.2534C65.2158 36.4693 64.5876 35.5765 63.8224 34.5751L63.6807 34.4051C62.9533 36.0205 62.5896 37.3336 62.5896 38.3445C62.5896 38.9396 62.6888 39.445 62.8872 39.8607C63.095 40.2669 63.5862 40.9518 64.3609 41.9154C64.427 42.0004 64.5309 42.1327 64.6726 42.3122H57.0206L56.7372 41.9296H63.9499L63.7091 41.632C63.0856 40.8763 62.6746 40.2905 62.4762 39.8749C62.2873 39.4498 62.1928 38.9538 62.1928 38.387C62.1928 37.4234 62.5849 35.9875 63.369 34.0792L62.7455 33.4273C62.6227 33.7296 62.4668 34.1736 62.2778 34.7594L61.8102 36.2047C61.5551 36.9794 61.4276 37.6218 61.4276 38.1319C61.4276 38.6609 61.5174 39.1002 61.6968 39.4498C61.8763 39.7993 62.2542 40.2764 62.8305 40.881C62.8872 40.9377 62.9722 41.0274 63.0856 41.1502H56.0003C57.3513 40.4511 58.4188 39.5112 59.2029 38.3303C59.9964 37.1494 60.7805 35.3262 61.5551 32.8605L61.6118 32.6621C61.1111 32.237 60.3884 31.9772 59.4438 31.8828C59.9633 31.1081 60.3648 30.3004 60.6482 29.4596C60.7805 29.5824 60.8608 29.658 60.8891 29.6863L61.5268 30.2815C61.7441 30.4893 62.0039 30.7019 62.3062 30.9192L62.5612 30.2957L62.3912 30.154C61.9189 29.7383 61.5221 29.4029 61.2009 29.1479L61.0734 29.0487L61.3001 28.7369C61.8008 29.0676 62.2826 29.4502 62.7455 29.8847L64.6726 24.585L63.1706 22.9696H69.7031ZM66.203 27.5183L64.6443 31.6277C64.7293 31.7222 64.7766 31.7788 64.786 31.7977L65.367 32.4496C65.6787 32.7897 66.0755 33.3187 66.5573 34.0367L66.699 34.2492C67.1052 33.7391 67.587 33.2337 68.1444 32.733L66.203 27.5183ZM65.5654 25.8745L63.3123 31.8261C64.0302 32.5629 64.649 33.2904 65.1686 34.0083L65.8204 34.9152C65.8299 34.9247 65.8771 34.9861 65.9622 35.0994C66.0472 35.0144 66.0944 34.9625 66.1039 34.9436L66.3022 34.7027C66.3306 34.6649 66.3825 34.6035 66.4581 34.5185C65.7968 33.4982 65.0269 32.5771 64.1483 31.7552L65.9622 26.9656L65.5654 25.8745ZM73.8976 29.9414C74.1054 30.7916 74.625 31.9583 75.4563 33.4415C75.2485 33.4132 75.1304 33.399 75.1021 33.399L73.9543 33.2998C73.4347 33.2526 73.0568 33.2289 72.8206 33.2289C72.7829 33.2289 72.6884 33.2337 72.5372 33.2431L74.9037 39.5206L78.0637 42.3122H69.859L69.5898 41.9296H77.1143L74.5636 39.6765L72.0413 33.0022C72.3625 32.9172 72.7309 32.8747 73.1466 32.8747C73.6567 32.8747 74.2235 32.9172 74.847 33.0022L74.677 32.6905C74.0724 31.5757 73.6661 30.5696 73.4583 29.6722L73.8976 29.9414ZM78.6589 22.9696H85.2906L83.3209 24.8401V33.399L84.1003 32.5063V24.9534L85.6874 23.4088L85.9 23.7206L84.4404 25.1376V32.067L88.8332 26.8239C89.4662 26.0682 89.7826 25.388 89.7826 24.7834C89.7826 24.4244 89.6032 24.0843 89.2442 23.7631C88.8852 23.4325 88.4506 23.2152 87.9405 23.1113V22.9696H95.4083V23.1113C93.774 23.508 92.0121 24.8401 90.1227 27.1073L88.153 29.4454L93.3819 39.6056L95.7626 41.1502H88.4081L90.2644 39.7615L86.7502 32.733L84.4404 35.5529V39.6056L86.7502 42.3122H79.4807L79.0981 41.9296H85.9L84.1003 39.7615V35.3687L86.566 32.3362L86.2542 31.7127L83.3209 35.1986V39.6056L85.0356 41.1502H78.5455L80.4868 39.4923V24.6558L78.6589 22.9696ZM96.1168 24.2591C94.7187 24.3535 93.3253 25.1707 91.9366 26.7105L89.4567 29.4596L94.4589 39.6056L98.4691 42.3122H89.4567L89.06 41.9296H97.2646L94.2463 39.8749L89.06 29.4596L91.6957 26.4838C93.0749 24.944 94.4967 24.1032 95.961 23.9615L96.1168 24.2591Z" fill="white"/>
<path fill-rule="evenodd" clip-rule="evenodd" d="M53.0961 46.5476C50.9725 47.3805 48.6602 47.8377 46.2412 47.8377C43.8222 47.8377 41.51 47.3805 39.3863 46.5476H33.2768C36.8985 49.2362 41.3841 50.8267 46.2412 50.8267C51.0983 50.8267 55.5839 49.2362 59.2056 46.5476H53.0961ZM29.3284 20.8744C32.3693 14.599 38.7999 10.2718 46.2412 10.2718C53.6825 10.2718 60.1132 14.599 63.154 20.8744H66.4241C63.1903 12.9039 55.3722 7.28284 46.2412 7.28284C37.1102 7.28284 29.2921 12.9039 26.0583 20.8744H29.3284Z" fill="#FF8800"/>
<path fill-rule="evenodd" clip-rule="evenodd" d="M67.1261 19.8683C63.5919 11.8457 55.5708 6.2449 46.2414 6.2449C36.9121 6.2449 28.8909 11.8457 25.3568 19.8683H22.126C25.8281 10.1558 35.229 3.25598 46.2414 3.25598C57.2539 3.25598 66.6548 10.1558 70.3569 19.8683H67.1261Z" fill="#FF8800"/>
</svg>
