<svg width="100" height="100" viewBox="0 0 100 100" fill="none" xmlns="http://www.w3.org/2000/svg">
<path d="M91.6666 37.5V29.1667H83.3333V20.8333C83.3333 16.25 79.5833 12.5 74.9999 12.5H16.6666C12.0833 12.5 8.33325 16.25 8.33325 20.8333V79.1667C8.33325 83.75 12.0833 87.5 16.6666 87.5H74.9999C79.5833 87.5 83.3333 83.75 83.3333 79.1667V70.8333H91.6666V62.5H83.3333V54.1667H91.6666V45.8333H83.3333V37.5H91.6666ZM74.9999 79.1667H16.6666V20.8333H74.9999V79.1667ZM24.9999 54.1667H45.8333V70.8333H24.9999V54.1667ZM49.9999 29.1667H66.6666V41.6667H49.9999V29.1667ZM24.9999 29.1667H45.8333V50H24.9999V29.1667ZM49.9999 45.8333H66.6666V70.8333H49.9999V45.8333Z" fill="#1E71FF"/>
</svg>
