<svg width="100" height="100" viewBox="0 0 100 100" fill="none" xmlns="http://www.w3.org/2000/svg">
<path d="M84.9166 35.7084L79.7916 43.4168C82.2631 48.3462 83.4731 53.8119 83.3132 59.3239C83.1532 64.836 81.6282 70.2223 78.8749 75.0001H21.1249C17.5464 68.7922 16.0636 61.5964 16.8963 54.4795C17.729 47.3627 20.8329 40.7035 25.7477 35.4894C30.6626 30.2752 37.1268 26.7836 44.1821 25.5322C51.2375 24.2807 58.5082 25.3361 64.9166 28.5418L72.6249 23.4168C64.7769 18.3843 55.4679 16.1293 46.1869 17.0123C36.906 17.8954 28.1893 21.8655 21.4311 28.2876C14.673 34.7098 10.2639 43.2129 8.90914 52.4368C7.55438 61.6608 9.3322 71.0726 13.9582 79.1668C14.6854 80.4262 15.7294 81.4735 16.9867 82.2045C18.244 82.9354 19.6706 83.3247 21.1249 83.3334H78.8332C80.3017 83.3393 81.7455 82.957 83.0187 82.2253C84.2918 81.4936 85.349 80.4385 86.0832 79.1668C89.9223 72.5164 91.8489 64.9346 91.6504 57.2582C91.4519 49.5819 89.1359 42.1098 84.9582 35.6668L84.9166 35.7084Z" fill="#1E71FF"/>
<path d="M44.125 64.2082C44.8989 64.9831 45.818 65.5977 46.8296 66.0171C47.8413 66.4364 48.9257 66.6523 50.0208 66.6523C51.1159 66.6523 52.2003 66.4364 53.212 66.0171C54.2236 65.5977 55.1427 64.9831 55.9166 64.2082L79.5 28.8333L44.125 52.4166C43.3502 53.1905 42.7355 54.1096 42.3161 55.1212C41.8968 56.1329 41.6809 57.2173 41.6809 58.3124C41.6809 59.4075 41.8968 60.4919 42.3161 61.5036C42.7355 62.5152 43.3502 63.4343 44.125 64.2082Z" fill="#57A4FF"/>
</svg>
