<svg width="33" height="27" viewBox="0 0 33 27" fill="none" xmlns="http://www.w3.org/2000/svg">
<path d="M32.5576 3.08862C31.3596 3.6186 30.0892 3.96676 28.7884 4.12159C30.159 3.30077 31.1844 2.00971 31.6738 0.488932C30.3865 1.25502 28.9752 1.79191 27.5058 2.08234C26.5178 1.02516 25.2081 0.32404 23.7805 0.0879667C22.3528 -0.148106 20.8872 0.094099 19.6114 0.776928C18.3356 1.45976 17.3212 2.54495 16.7258 3.8638C16.1304 5.18266 15.9874 6.66127 16.319 8.06978C13.7082 7.93916 11.1541 7.26087 8.82252 6.07898C6.49092 4.89709 4.43397 3.23802 2.78525 1.2095C2.20171 2.21177 1.89507 3.35114 1.89671 4.51091C1.89671 6.78721 3.05683 8.79819 4.81664 9.97559C3.77428 9.94271 2.75487 9.66122 1.84333 9.15455V9.23462C1.84328 10.7509 2.36772 12.2205 3.32768 13.3942C4.28765 14.5679 5.62404 15.3735 7.11021 15.6742C6.14261 15.9367 5.12794 15.9753 4.14317 15.7872C4.5622 17.0924 5.37899 18.2338 6.47912 19.0516C7.57925 19.8693 8.90763 20.3225 10.2782 20.3476C8.91611 21.4174 7.3565 22.2082 5.68856 22.6748C4.02062 23.1413 2.27706 23.2745 0.557617 23.0666C3.55875 24.9966 7.05229 26.0212 10.6204 26.018C22.6989 26.018 29.3017 16.0133 29.3017 7.33666C29.3017 7.05408 29.2955 6.76837 29.2829 6.48736C30.5677 5.55857 31.6766 4.40661 32.5576 3.08862Z" fill="white"/>
</svg>
