<svg width="150" height="151" viewBox="0 0 150 151" fill="none" xmlns="http://www.w3.org/2000/svg">
<path d="M12.5 44.074V31.574C12.5 28.1365 13.725 25.1927 16.175 22.7427C18.625 20.2927 21.5667 19.0698 25 19.074H125C128.438 19.074 131.381 20.299 133.831 22.749C136.281 25.199 137.504 28.1407 137.5 31.574V44.074H125V31.574H25V44.074H12.5ZM50 131.574V119.074H25C21.5625 119.074 18.6188 117.849 16.1688 115.399C13.7188 112.949 12.4958 110.007 12.5 106.574V94.074H25V106.574H125V94.074H137.5V106.574C137.5 110.011 136.275 112.955 133.825 115.405C131.375 117.855 128.433 119.078 125 119.074H100V131.574H50ZM30 69.074L46.25 52.824L37.5 44.074L12.5 69.074L37.5 94.074L46.25 85.324L30 69.074ZM120 69.074L103.75 85.324L112.5 94.074L137.5 69.074L112.5 44.074L103.75 52.824L120 69.074Z" fill="#1E71FF"/>
</svg>
