<svg width="151" height="151" viewBox="0 0 151 151" fill="none" xmlns="http://www.w3.org/2000/svg">
<path fill-rule="evenodd" clip-rule="evenodd" d="M88.3381 43.9949C86.6805 43.9949 85.0908 44.6534 83.9187 45.8255C82.7466 46.9976 82.0881 48.5873 82.0881 50.2449V100.245C82.0881 101.902 82.7466 103.492 83.9187 104.664C85.0908 105.836 86.6805 106.495 88.3381 106.495H113.338C114.996 106.495 116.585 105.836 117.758 104.664C118.93 103.492 119.588 101.902 119.588 100.245V50.2449C119.588 48.5873 118.93 46.9976 117.758 45.8255C116.585 44.6534 114.996 43.9949 113.338 43.9949H88.3381ZM107.088 56.4949H94.5881V93.9949H107.088V56.4949Z" fill="#57A4FF"/>
<path d="M38.3381 43.9949C36.6805 43.9949 35.0908 44.6534 33.9187 45.8255C32.7466 46.9976 32.0881 48.5873 32.0881 50.2449C32.0881 51.9025 32.7466 53.4922 33.9187 54.6643C35.0908 55.8364 36.6805 56.4949 38.3381 56.4949H63.3381C64.9957 56.4949 66.5854 55.8364 67.7575 54.6643C68.9297 53.4922 69.5881 51.9025 69.5881 50.2449C69.5881 48.5873 68.9297 46.9976 67.7575 45.8255C66.5854 44.6534 64.9957 43.9949 63.3381 43.9949H38.3381ZM38.3381 68.9949C36.6805 68.9949 35.0908 69.6534 33.9187 70.8255C32.7466 71.9976 32.0881 73.5873 32.0881 75.2449C32.0881 76.9025 32.7466 78.4922 33.9187 79.6643C35.0908 80.8364 36.6805 81.4949 38.3381 81.4949H63.3381C64.9957 81.4949 66.5854 80.8364 67.7575 79.6643C68.9297 78.4922 69.5881 76.9025 69.5881 75.2449C69.5881 73.5873 68.9297 71.9976 67.7575 70.8255C66.5854 69.6534 64.9957 68.9949 63.3381 68.9949H38.3381ZM32.0881 100.245C32.0881 98.5873 32.7466 96.9976 33.9187 95.8255C35.0908 94.6534 36.6805 93.9949 38.3381 93.9949H63.3381C64.9957 93.9949 66.5854 94.6534 67.7575 95.8255C68.9297 96.9976 69.5881 98.5873 69.5881 100.245C69.5881 101.902 68.9297 103.492 67.7575 104.664C66.5854 105.836 64.9957 106.495 63.3381 106.495H38.3381C36.6805 106.495 35.0908 105.836 33.9187 104.664C32.7466 103.492 32.0881 101.902 32.0881 100.245Z" fill="#57A4FF"/>
<path fill-rule="evenodd" clip-rule="evenodd" d="M25.8381 18.995C20.8653 18.995 16.0962 20.9704 12.5799 24.4867C9.06358 28.0031 7.08813 32.7722 7.08813 37.745V112.745C7.08813 117.718 9.06358 122.487 12.5799 126.003C16.0962 129.52 20.8653 131.495 25.8381 131.495H125.838C130.811 131.495 135.58 129.52 139.096 126.003C142.613 122.487 144.588 117.718 144.588 112.745V37.745C144.588 32.7722 142.613 28.0031 139.096 24.4867C135.58 20.9704 130.811 18.995 125.838 18.995H25.8381ZM125.838 31.495H25.8381C24.1805 31.495 22.5908 32.1535 21.4187 33.3256C20.2466 34.4977 19.5881 36.0874 19.5881 37.745V112.745C19.5881 114.403 20.2466 115.992 21.4187 117.164C22.5908 118.337 24.1805 118.995 25.8381 118.995H125.838C127.496 118.995 129.085 118.337 130.258 117.164C131.43 115.992 132.088 114.403 132.088 112.745V37.745C132.088 36.0874 131.43 34.4977 130.258 33.3256C129.085 32.1535 127.496 31.495 125.838 31.495Z" fill="#1E71FF"/>
</svg>
