<svg width="151" height="151" viewBox="0 0 151 151" fill="none" xmlns="http://www.w3.org/2000/svg">
<path d="M37.6089 66.5337H65.7339V75.9087H37.6089V66.5337ZM37.6089 29.0337H93.8589V38.4087H37.6089V29.0337ZM37.6089 47.7837H93.8589V57.1587H37.6089V47.7837ZM37.6089 113.409H65.7339V122.784H37.6089V113.409ZM140.734 113.409V104.034H130.885C130.281 101.099 129.116 98.3094 127.454 95.8165L134.439 88.8321L127.81 82.204L120.826 89.1884C118.333 87.5267 115.543 86.3617 112.609 85.7571V75.9087H103.234V85.7571C100.3 86.3617 97.5095 87.5267 95.0167 89.1884L88.0323 82.204L81.4042 88.8321L88.3886 95.8165C86.7269 98.3094 85.5619 101.099 84.9573 104.034H75.1089V113.409H84.9573C85.5619 116.343 86.7269 119.133 88.3886 121.626L81.4042 128.61L88.0323 135.238L95.0167 128.254C97.5095 129.916 100.3 131.081 103.234 131.685V141.534H112.609V131.685C115.543 131.081 118.333 129.916 120.826 128.254L127.81 135.238L134.439 128.61L127.454 121.626C129.116 119.133 130.281 116.343 130.885 113.409H140.734ZM107.921 122.784C105.14 122.784 102.421 121.959 100.109 120.414C97.7961 118.869 95.9937 116.672 94.9293 114.103C93.865 111.533 93.5865 108.706 94.1291 105.978C94.6717 103.25 96.011 100.744 97.9777 98.7775C99.9444 96.8108 102.45 95.4715 105.178 94.9289C107.906 94.3863 110.733 94.6648 113.303 95.7291C115.872 96.7935 118.069 98.5959 119.614 100.908C121.159 103.221 121.984 105.94 121.984 108.721C121.98 112.45 120.497 116.024 117.861 118.661C115.225 121.297 111.65 122.78 107.921 122.784Z" fill="#57A4FF"/>
<path d="M65.7339 141.534H28.2339C25.7482 141.531 23.3651 140.543 21.6075 138.785C19.8499 137.027 18.8614 134.644 18.8589 132.159V19.6587C18.8614 17.173 19.8499 14.7899 21.6075 13.0323C23.3651 11.2747 25.7482 10.2862 28.2339 10.2837H103.234C105.72 10.2862 108.103 11.2747 109.86 13.0323C111.618 14.7899 112.606 17.173 112.609 19.6587V66.5337H103.234V19.6587H28.2339V132.159H65.7339V141.534Z" fill="#1E71FF"/>
</svg>
