<svg width="33" height="23" viewBox="0 0 33 23" fill="none" xmlns="http://www.w3.org/2000/svg">
<path d="M32.4254 6.512C32.3294 5.232 32.1854 4.224 31.9774 3.472C31.5774 2.032 30.6494 1.104 29.2094 0.704L32.4254 6.512ZM32.4254 6.512C32.5374 7.792 32.5854 8.896 32.5854 9.856L32.4254 6.512ZM13.2336 16V16.4294L13.6054 16.2145L21.9094 11.4145L22.2805 11.2L21.9094 10.9855L13.6054 6.18547L13.2336 5.97056V6.4V16ZM29.1437 0.942929C30.4996 1.31976 31.362 2.18227 31.7386 3.53832C31.9402 4.26728 32.0828 5.25653 32.1783 6.53053L32.1783 6.53053L32.1786 6.5336C32.29 7.80747 32.3376 8.9042 32.3376 9.856V9.86484L32.3382 9.87365L32.4336 11.2088C32.4332 14.7011 32.1773 17.2478 31.7385 18.8624C31.3616 20.2182 30.4992 21.0805 29.1432 21.4572C28.422 21.6567 27.0731 21.8003 24.9581 21.8965L24.9561 21.8966C22.8804 22.0083 20.9809 22.0562 19.2254 22.0562V22.056L19.2161 22.0564L16.6767 22.1522C13.3294 22.1522 10.6162 22.0882 8.53561 21.9686C6.44838 21.8487 5.01571 21.6735 4.21902 21.4571C2.86325 21.0802 2.00093 20.2178 1.62422 18.8619C1.42258 18.133 1.28005 17.1436 1.18449 15.8695L1.18451 15.8695L1.18424 15.8664C1.07278 14.5925 1.02518 13.4958 1.02518 12.544V12.5352L1.02455 12.5263L0.929185 11.1912C0.929615 7.69889 1.18553 5.15225 1.62433 3.53766C2.00115 2.18183 2.86361 1.31949 4.21956 0.942791C4.94079 0.743326 6.28975 0.599664 8.40465 0.503532L8.40465 0.50354L8.40672 0.503429C10.4824 0.391663 12.3819 0.343788 14.1374 0.343788V0.343964L14.1467 0.343611L16.6861 0.247788C20.0333 0.247847 22.7466 0.311808 24.8272 0.431379C26.9144 0.551333 28.347 0.726471 29.1437 0.942929Z" fill="white" stroke="black" stroke-width="0.495575"/>
</svg>
